<svg xmlns="http://www.w3.org/2000/svg" viewBox="0 0 120 120" role="img" aria-label="LockAlive icon">
  <defs>
    <linearGradient id="bg" x1="0" x2="1" y1="0" y2="1">
      <stop offset="0%" stop-color="#0a84ff"/>
      <stop offset="100%" stop-color="#34c759"/>
    </linearGradient>
    <linearGradient id="lock" x1="0" x2="0" y1="0" y2="1">
      <stop offset="0%" stop-color="#ffffff"/>
      <stop offset="100%" stop-color="#e9f1ff"/>
    </linearGradient>
  </defs>
  <rect x="4" y="4" width="112" height="112" rx="28" fill="url(#bg)"/>
  <rect x="30" y="52" width="60" height="42" rx="12" fill="url(#lock)" opacity="0.96"/>
  <path d="M40 52v-8c0-11 9-20 20-20s20 9 20 20v8h-8v-8c0-7-5-12-12-12s-12 5-12 12v8z" fill="#fff" opacity="0.95"/>
  <circle cx="60" cy="73" r="6" fill="#0a84ff"/>
  <rect x="57.5" y="73" width="5" height="10" rx="2.5" fill="#0a84ff"/>
  <path d="M20 80c7-9 15-13 24-13s17 4 24 13" fill="none" stroke="#fff" stroke-width="3.2" stroke-linecap="round" opacity="0.8"/>
  <path d="M25 88c6-7 12-10 19-10s13 3 19 10" fill="none" stroke="#fff" stroke-width="3.2" stroke-linecap="round" opacity="0.65"/>
</svg>
